<?xml version="1.0" encoding="UTF-8" standalone="no"?>
<!-- Created with Inkscape (http://www.inkscape.org/) -->

<svg
   xmlns:dc="http://purl.org/dc/elements/1.1/"
   xmlns:cc="http://creativecommons.org/ns#"
   xmlns:rdf="http://www.w3.org/1999/02/22-rdf-syntax-ns#"
   xmlns:svg="http://www.w3.org/2000/svg"
   xmlns="http://www.w3.org/2000/svg"
   xmlns:sodipodi="http://sodipodi.sourceforge.net/DTD/sodipodi-0.dtd"
   xmlns:inkscape="http://www.inkscape.org/namespaces/inkscape"
   width="277.63278mm"
   height="40.325619mm"
   viewBox="0 0 277.63278 40.325619"
   version="1.1"
   id="svg8"
   inkscape:version="0.92.3 (2405546, 2018-03-11)"
   sodipodi:docname="KOMPAS_TV_(2017).svg">
  <defs
     id="defs2" />
  <sodipodi:namedview
     id="base"
     pagecolor="#ffffff"
     bordercolor="#666666"
     borderopacity="1.0"
     inkscape:pageopacity="0.0"
     inkscape:pageshadow="2"
     inkscape:zoom="0.49497475"
     inkscape:cx="517.73017"
     inkscape:cy="230.90178"
     inkscape:document-units="mm"
     inkscape:current-layer="layer1"
     showgrid="false"
     fit-margin-top="0"
     fit-margin-left="0"
     fit-margin-right="0"
     fit-margin-bottom="0"
     inkscape:window-width="1366"
     inkscape:window-height="705"
     inkscape:window-x="-8"
     inkscape:window-y="-8"
     inkscape:window-maximized="1" />
  <metadata
     id="metadata5">
    <rdf:RDF>
      <cc:Work
         rdf:about="">
        <dc:format>image/svg+xml</dc:format>
        <dc:type
           rdf:resource="http://purl.org/dc/dcmitype/StillImage" />
        <dc:title></dc:title>
      </cc:Work>
    </rdf:RDF>
  </metadata>
  <g
     inkscape:label="Layer 1"
     inkscape:groupmode="layer"
     id="layer1"
     transform="translate(147.92477,-198.96036)">
    <path
       style="fill:#005287;fill-opacity:1;stroke-width:0.08466667"
       d="m 59.747775,239.24333 c -2.504457,-0.23097 -4.516671,-1.14198 -6.077247,-2.75141 l -0.613308,-0.63251 -1.5954,1.22725 -1.595399,1.22724 h -0.597594 c -0.389967,0 -0.597595,-0.0335 -0.597595,-0.0963 0,-0.0529 0.32385,-2.48391 0.719667,-5.40214 0.395817,-2.91823 0.719667,-5.33365 0.719667,-5.3676 0,-0.0339 0.40496,-0.0509 0.899905,-0.0377 l 0.899905,0.024 0.233722,1.16244 c 0.824679,4.10167 2.616861,6.88597 5.290134,8.21868 2.953462,1.47239 6.9273,1.09186 9.519057,-0.91153 0.585368,-0.45247 1.493131,-1.39552 1.856156,-1.92829 0.418456,-0.61411 0.922054,-1.72505 1.122993,-2.4773 0.277741,-1.03976 0.258496,-2.53994 -0.04561,-3.556 -0.501006,-1.67394 -1.637436,-3.13609 -3.230219,-4.15605 -0.236297,-0.15131 -1.817447,-0.98813 -3.513667,-1.85958 -4.537448,-2.33118 -5.725203,-3.03249 -7.046604,-4.16068 -1.584545,-1.35286 -2.576305,-3.25351 -2.855629,-5.47267 -0.143679,-1.14146 -0.0606,-3.56541 0.158733,-4.63169 0.560545,-2.72496 1.918048,-4.95453 3.961359,-6.50615 0.644449,-0.48937 1.984214,-1.17646 2.813499,-1.44287 1.270957,-0.40831 3.177582,-0.64372 4.498933,-0.5555 2.835842,0.18936 4.850316,1.02056 6.577313,2.71389 l 0.539225,0.52871 1.393418,-1.30901 1.393419,-1.309 0.408635,0.0256 0.408644,0.0256 -0.781431,5.08 c -0.429785,2.794 -0.78453,5.08953 -0.788323,5.10117 -0.0038,0.0116 -0.330022,0.0212 -0.72495,0.0212 -0.676512,0 -0.720344,-0.011 -0.757521,-0.1905 -0.02171,-0.10477 -0.121404,-0.6096 -0.221547,-1.12183 -0.697078,-3.56544 -2.371666,-6.1619 -4.695216,-7.27997 -0.999727,-0.48106 -1.645776,-0.63641 -2.878666,-0.69221 -1.705958,-0.0772 -3.378412,0.30462 -4.773609,1.08982 -0.771415,0.43414 -2.030146,1.64995 -2.450219,2.36667 -0.892556,1.52286 -1.012647,3.47211 -0.301481,4.89364 0.378942,0.75748 1.193723,1.52647 2.336876,2.20558 0.478739,0.2844 2.375383,1.27394 4.214766,2.19897 4.653898,2.34047 5.531036,2.89046 7.077549,4.43782 1.602749,1.60363 2.491562,3.27384 2.920958,5.48893 0.42694,2.20241 0.245618,5.17301 -0.448403,7.34642 -0.621352,1.94582 -1.627065,3.60923 -3.022914,4.99978 -1.341746,1.33664 -2.774128,2.20071 -4.686808,2.82726 -1.586831,0.5198 -3.999204,0.79136 -5.665173,0.63772 z"
       id="path850"
       inkscape:connector-curvature="0" />
    <path
       id="path846"
       style="fill:#005287;fill-opacity:1;stroke-width:0.08466667"
       d="m -88.492457,237.3883 c 2.625448,-0.66316 4.717268,-2.51806 6.550578,-5.80866 1.920706,-3.44748 3.900477,-10.18883 4.663094,-15.8784 0.343116,-2.55985 0.430711,-3.81451 0.428085,-6.13167 -0.0027,-2.37937 -0.08384,-3.11255 -0.505556,-4.56779 -0.535366,-1.84744 -1.618248,-3.25931 -3.008407,-3.9224 -1.151974,-0.54947 -1.678883,-0.65251 -3.34044,-0.65321 -1.564919,-6.6e-4 -2.139436,0.0957 -3.307196,0.55442 -2.564602,1.00752 -4.800418,3.6457 -6.561469,7.74231 -0.525578,1.22261 -1.630556,4.51157 -2.104941,6.26533 -1.355984,5.01297 -2.138052,10.53889 -2.013083,14.224 0.107168,3.16022 0.748661,5.18114 2.092739,6.59282 0.871601,0.91545 1.874142,1.44193 3.25795,1.71089 0.88482,0.17198 2.93111,0.10411 3.848646,-0.12764 z m -4.364984,1.60065 c -2.694961,-0.2587 -4.977239,-1.15314 -7.018995,-2.7508 -5.248944,-4.10725 -7.015994,-11.84855 -4.453744,-19.51149 0.87841,-2.62707 2.16956,-5.03338 4.06911,-7.58361 4.313878,-5.79157 9.275974,-9.18485 14.600024,-9.98407 7.144131,-1.07245 13.023124,2.24456 15.638296,8.82333 0.383513,0.96478 0.803974,2.69969 0.968044,3.99437 0.196105,1.54748 0.138406,4.26231 -0.12159,5.72089 -0.817904,4.58846 -2.937926,8.91547 -6.367084,12.99536 -0.994828,1.18361 -2.87804,3.0399 -3.970857,3.91409 -2.413137,1.93038 -5.229111,3.35888 -7.789199,3.95134 -1.706838,0.395 -4.040258,0.5759 -5.554005,0.43059 z"
       inkscape:connector-curvature="0" />
    <path
       id="path842"
       style="fill:#005287;fill-opacity:1;stroke-width:0.08466667"
       d="m 31.228654,224.5344 c -0.0027,-1.06406 -0.333629,-14.94693 -0.356827,-14.97012 -0.0219,-0.0219 -9.289094,14.30942 -9.785562,15.13299 l -0.195301,0.32396 h 5.169467 5.169468 l -0.0013,-0.48683 z m -4.507255,13.71693 -0.486834,-0.0305 v -0.6731 -0.67311 h 2.588489 2.58848 l -0.05015,-3.02683 c -0.02758,-1.66476 -0.07275,-3.98913 -0.100398,-5.16527 l -0.05024,-2.13843 -5.638639,0.0218 -5.638631,0.0218 -3.329576,5.12233 -3.329576,5.12234 2.797125,0.0223 2.797115,0.0223 v 0.67619 0.6762 H 13.619231 8.369898 v -0.67734 -0.67733 h 1.55895 1.558959 l 12.051208,-18.8806 12.051216,-18.8806 1.016,0.0211 1.016,0.0211 0.353831,18.542 c 0.194598,10.1981 0.356523,18.68487 0.359833,18.8595 l 0.006,0.3175 h 2.582334 2.582333 v 0.71967 0.71966 l -8.149167,-0.016 c -4.482041,-0.009 -8.368241,-0.0297 -8.636,-0.0466 z"
       inkscape:connector-curvature="0" />
    <path
       style="fill:#005287;fill-opacity:1;stroke-width:0.08466667"
       d="m -41.526988,238.17279 c -0.03105,-0.031 -0.05645,-0.35432 -0.05645,-0.71839 v -0.66194 l 2.473282,-0.0224 2.473283,-0.0224 3.321558,-16.80634 c 1.826861,-9.24348 3.305878,-16.85395 3.286709,-16.91216 -0.0411,-0.12482 -0.478697,-0.14222 -0.594732,-0.0237 -0.04424,0.0452 -4.004734,7.96919 -8.8011,17.60885 l -8.720667,17.52666 -0.863998,0.002 -0.863998,0.002 -0.04505,-0.27517 c -0.02477,-0.15134 -0.845261,-8.06432 -1.823305,-17.58441 -0.978044,-9.52008 -1.812358,-17.34333 -1.854023,-17.385 -0.143035,-0.14304 -0.470518,-0.0265 -0.54096,0.19258 -0.06934,0.2156 -6.750999,33.49645 -6.750999,33.62624 0,0.0391 1.1049,0.0711 2.455334,0.0711 h 2.455333 v 0.67734 0.67733 h -5.672667 -5.672666 v -0.67733 -0.67734 h 2.323336 c 1.277835,0 2.341678,-0.0297 2.364098,-0.066 0.04595,-0.0744 6.996566,-35.15067 6.996566,-35.30819 0,-0.0761 -0.588594,-0.10119 -2.370667,-0.10119 h -2.370667 v -0.72016 -0.72016 l 6.960032,0.0217 6.960032,0.0217 1.285088,12.36133 c 0.706806,6.79873 1.299066,12.45658 1.316135,12.573 0.02492,0.16988 0.07943,0.21167 0.276132,0.21167 0.240825,0 0.355202,-0.21873 6.574561,-12.573 l 6.329468,-12.573 6.739281,-0.0217 6.739272,-0.0217 v 0.77448 0.77448 l -2.627198,-0.0421 c -1.444955,-0.0232 -2.64298,-0.0166 -2.662259,0.0146 -0.05106,0.0826 -6.98721,35.07181 -6.98721,35.24677 0,0.1368 0.177749,0.14747 2.455333,0.14747 h 2.455334 v 0.71967 0.71967 h -8.452553 c -4.648911,0 -8.477961,-0.0254 -8.509,-0.0565 z"
       id="path840"
       inkscape:connector-curvature="0" />
    <path
       id="path836"
       style="fill:#005287;fill-opacity:1;stroke-width:0.08466667"
       d="m 2.231565,218.84177 c 0.372533,-0.0504 0.95543,-0.16696 1.295332,-0.25898 2.887549,-0.78179 4.910472,-3.6839 5.663007,-8.12422 0.170662,-1.007 0.195182,-3.61435 0.04141,-4.40267 -0.16416,-0.8416 -0.503335,-1.80432 -0.78602,-2.2311 -0.359918,-0.54338 -1.191209,-1.28737 -1.758264,-1.57362 -1.231443,-0.62163 -2.573308,-0.85403 -5.274962,-0.91361 l -2.089506,-0.0461 -0.05303,0.2867 c -0.02917,0.15769 -0.770086,4.11575 -1.646479,8.7957 -0.876393,4.67995 -1.573674,8.54276 -1.549519,8.58402 0.05863,0.10014 5.288721,0.001 6.158027,-0.11615 z m -20.530507,18.8583 c 0.0021,-0.98491 -0.163415,-0.90346 1.889803,-0.92968 l 1.787415,-0.0228 3.394032,-17.44134 c 1.8667139,-9.59273 3.4193736,-17.56515 3.4503531,-17.7165 l 0.056337,-0.27516 h -2.4108831 -2.410883 v -0.70948 -0.70947 l 9.0805,0.0347 c 4.994275,0.0191 9.568637,0.0733 10.165258,0.12042 2.17733,0.17197 3.848752,0.57937 5.381498,1.31172 1.587669,0.75858 2.605312,1.61652 3.430507,2.89214 0.902055,1.39443 1.264852,2.81931 1.267037,4.97626 0.0032,3.15052 -0.891659,5.50448 -2.816285,7.40833 -1.26072,1.24712 -2.901772,2.2126 -4.880601,2.87141 -2.486423,0.8278 -5.125526,1.10324 -10.600081,1.1063 -1.594908,8.9e-4 -2.899757,0.0302 -2.899664,0.0651 8.5e-5,0.0349 -0.70927,3.65627 -1.5763494,8.04743 -0.8670882,4.39116 -1.5498487,8.01066 -1.5172436,8.04333 0.032597,0.0327 1.1229594,0.0716 2.423016,0.0866 l 2.363741,0.0271 v 0.67136 0.67136 h -7.789333 -7.789334 l 0.0012,-0.52917 z"
       inkscape:connector-curvature="0" />
    <path
       style="fill:#005287;fill-opacity:1;stroke-width:0.08466667"
       d="m -118.86294,238.08108 -6.37116,-0.0223 v -0.6768 -0.67679 h 2.62466 c 1.46311,0 2.62467,-0.0331 2.62467,-0.0748 0,-0.0412 -2.51489,-4.22176 -5.58864,-9.29023 -3.07376,-5.06848 -5.57883,-9.23827 -5.56684,-9.26619 0.012,-0.0279 4.11756,-3.79402 9.12348,-8.36909 5.00592,-4.57508 9.11437,-8.35357 9.12989,-8.39666 0.0169,-0.047 -1.12519,-0.0783 -2.8575,-0.0783 h -2.88572 v -0.71967 -0.71966 h 6.604 6.604 v 0.71966 0.71967 h -2.35076 -2.35076 l -7.32241,6.73686 c -4.02732,3.70528 -7.44484,6.85805 -7.59449,7.00617 l -0.27209,0.2693 6.67997,10.71034 6.67997,10.71033 2.54562,0.0224 2.54561,0.0224 v 0.71842 0.71843 l -2.81516,-0.0206 c -1.54834,-0.0113 -5.68219,-0.0306 -9.18634,-0.0429 z"
       id="path834"
       inkscape:connector-curvature="0" />
    <path
       style="fill:#005287;fill-opacity:1;stroke-width:0.08466667"
       d="m -147.92477,237.34666 v -0.71324 l 2.72276,0.0147 2.72277,0.0147 3.45474,-17.56833 c 1.9001,-9.66259 3.45616,-17.63501 3.4579,-17.7165 0.003,-0.13766 -0.16496,-0.14817 -2.3675,-0.14817 h -2.37067 v -0.71967 -0.71966 h 8.72067 8.72066 v 0.71966 0.71967 h -2.74248 -2.74249 l -0.0454,0.1905 c -0.0986,0.41393 -6.83096,35.08997 -6.83096,35.18416 0,0.0754 0.60504,0.10068 2.413,0.10068 h 2.413 v 0.67733 0.67733 h -8.763 -8.763 z"
       id="path832"
       inkscape:connector-curvature="0" />
    <path
       id="path826"
       style="fill:#df2127;fill-opacity:1;stroke-width:0.08466667"
       d="m 110.26983,225.17043 c -0.0602,-0.27133 -3.1786,-24.92441 -3.1786,-25.1288 0,-0.16553 0.0543,-0.16809 3.1102,-0.14626 l 3.1102,0.0222 0.78034,8.80533 c 0.42919,4.84293 0.7822,8.89106 0.78447,8.99583 0.002,0.10478 0.0539,0.1905 0.11477,0.1905 0.0637,0 1.92219,-3.82795 4.37788,-9.017 l 4.26725,-9.017 h 3.03584 3.03583 l -1.78089,3.4925 c -0.97949,1.92088 -3.90635,7.6454 -6.50414,12.72117 l -4.72326,9.22867 -3.19371,0.0222 -3.19371,0.0222 z m -23.87127,0.0413 c 0.0288,-0.12241 3.61814,-19.09364 3.80453,-20.10833 l 0.0583,-0.3175 H 86.6498 83.038209 l 0.05828,-0.3175 c 0.289534,-1.57735 0.873971,-4.52996 0.902259,-4.55825 0.01957,-0.0196 4.684272,-0.0259 10.366002,-0.0141 l 10.33043,0.0215 -0.23023,1.18533 c -0.12662,0.65193 -0.33635,1.74731 -0.46605,2.43417 l -0.23582,1.24883 h -3.62761 c -1.99517,0 -3.62759,0.022 -3.62759,0.0489 0,0.0892 -3.81591,20.22598 -3.86142,20.37695 -0.0415,0.13763 -0.26664,0.14817 -3.1637,0.14817 -2.92732,0 -3.11689,-0.009 -3.08422,-0.14817 z"
       inkscape:connector-curvature="0" />
  </g>
</svg>
