<svg width="139" height="24" viewBox="0 0 139 24" fill="none" xmlns="http://www.w3.org/2000/svg">
<path fill-rule="evenodd" clip-rule="evenodd" d="M22.9527 6.42986C22.4218 5.06789 21.6037 3.83165 20.5521 2.80234C18.1008 0.80936 14.9647 -0.183642 11.7903 0.0280363C8.62634 -0.183572 5.50093 0.809926 3.06271 2.80234C2.02078 3.83706 1.21133 5.07501 0.686639 6.43622C0.161951 7.79743 -0.0663086 9.25164 0.0166044 10.7049V13.3279C-0.0423261 14.7843 0.212253 16.2365 0.763697 17.5895C1.31514 18.9426 2.15103 20.1661 3.21672 21.18C5.648 23.1863 8.77695 24.1869 11.9443 23.9711C11.7822 23.2365 11.7019 22.4866 11.7047 21.7349V20.1044H11.8363C13.1687 20.1366 14.4977 19.9609 15.7723 19.5841C16.5739 19.3483 17.3133 18.9475 17.9397 18.4091C18.6676 17.7301 19.1894 16.8709 19.4483 15.925C19.668 15.0973 19.7729 14.245 19.7604 13.3905V12.0141C17.6649 11.8989 15.5931 12.4923 13.8997 13.6926C13.1312 14.3971 12.5335 15.2577 12.1498 16.2126C11.766 17.1675 11.6056 18.1928 11.6803 19.2148V20.0555C9.60868 20.2219 7.54821 19.6216 5.90346 18.3721C5.27464 17.6959 4.79739 16.8975 4.50259 16.0286C4.2078 15.1596 4.10204 14.2395 4.19216 13.3279V10.7722C4.09987 9.8604 4.2046 8.93975 4.4995 8.0705C4.79441 7.20125 5.27283 6.40299 5.90346 5.72798C7.60505 4.45618 9.72957 3.85635 11.8588 4.04658C14.0094 3.85399 16.1562 4.45322 17.8825 5.72798C18.515 6.4018 18.9946 7.1999 19.2896 8.06948C19.5846 8.93905 19.6883 9.86027 19.5938 10.7722V11.9492H20.0045C21.2285 11.9314 22.4491 12.0785 23.6325 12.3863V10.7049C23.7153 9.24875 23.4836 7.79184 22.9527 6.42986Z" fill="#006EFF"/>
<path d="M41.6514 6.35844C43.4779 6.35844 44.9412 6.85714 46.0412 7.85455C47.1413 8.83117 47.6913 10.4104 47.6913 12.5922V23.6883H43.0524V13.7455C43.0524 12.5195 42.8345 11.6052 42.3986 11.0026C41.9627 10.3792 41.2674 10.0675 40.3126 10.0675C38.9013 10.0675 37.9361 10.5558 37.4172 11.5325C36.8983 12.4883 36.6389 13.8701 36.6389 15.6779V23.6883H32V6.67013H35.5492L36.1719 8.85195H36.421C36.9606 7.97922 37.6974 7.34546 38.6314 6.95065C39.5862 6.55584 40.5928 6.35844 41.6514 6.35844Z" fill="#006EFF"/>
<path d="M68.0597 6.67013V23.6883H64.5104L63.8878 21.5065H63.6387C63.099 22.3792 62.3518 23.013 61.3971 23.4078C60.4631 23.8026 59.4668 24 58.4083 24C56.5818 24 55.1185 23.5117 54.0184 22.5351C52.9184 21.5377 52.3684 19.9481 52.3684 17.7662V6.67013H57.0073V16.613C57.0073 17.8182 57.2252 18.7325 57.6611 19.3558C58.0969 19.9792 58.7922 20.2909 59.747 20.2909C61.1584 20.2909 62.1235 19.813 62.6424 18.8571C63.1613 17.8805 63.4208 16.4883 63.4208 14.6805V6.67013H68.0597Z" fill="#006EFF"/>
<path d="M79.8352 24C77.303 24 75.3416 23.3039 73.9509 21.9117C72.5811 20.4987 71.8961 18.2857 71.8961 15.2727C71.8961 13.1948 72.249 11.5013 72.9547 10.1922C73.6604 8.88312 74.6359 7.91688 75.8812 7.29351C77.1473 6.67013 78.6002 6.35844 80.2399 6.35844C81.4022 6.35844 82.4089 6.47273 83.2598 6.7013C84.1316 6.92987 84.8892 7.2 85.5326 7.51169L84.1627 11.0961C83.4363 10.8052 82.7513 10.5662 82.1079 10.3792C81.4852 10.1922 80.8626 10.0987 80.2399 10.0987C77.8322 10.0987 76.6284 11.813 76.6284 15.2416C76.6284 16.9455 76.9397 18.2026 77.5624 19.013C78.2058 19.8234 79.0983 20.2286 80.2399 20.2286C81.2154 20.2286 82.0768 20.1039 82.824 19.8545C83.5712 19.5844 84.2976 19.2208 85.0033 18.7636V22.7221C84.2976 23.1792 83.5504 23.5013 82.7617 23.6883C81.9938 23.8961 81.0182 24 79.8352 24Z" fill="#006EFF"/>
<path d="M95.8898 6.32727C98.173 6.32727 99.9164 6.82597 101.12 7.82338C102.345 8.8 102.957 10.3065 102.957 12.3429V23.6883H99.7193L98.8164 21.3818H98.6918C97.9654 22.2961 97.1974 22.961 96.388 23.3766C95.5785 23.7922 94.4681 24 93.0567 24C91.5415 24 90.2858 23.5636 89.2895 22.6909C88.2933 21.7974 87.7951 20.4364 87.7951 18.6078C87.7951 16.8 88.4282 15.4701 89.6943 14.6182C90.9604 13.7455 92.8595 13.2675 95.3917 13.1844L98.3494 13.0909V12.3429C98.3494 11.4494 98.1107 10.7948 97.6333 10.3792C97.1767 9.96364 96.5333 9.75584 95.703 9.75584C94.8728 9.75584 94.0633 9.88052 93.2746 10.1299C92.4859 10.3584 91.6972 10.6494 90.9085 11.0026L89.3829 7.85455C90.2962 7.37662 91.3028 7.0026 92.4029 6.73247C93.5237 6.46234 94.686 6.32727 95.8898 6.32727ZM96.5436 15.8649C95.0492 15.9065 94.0114 16.1766 93.4303 16.6753C92.8491 17.174 92.5585 17.8286 92.5585 18.639C92.5585 19.3455 92.7661 19.8545 93.1812 20.1662C93.5963 20.4571 94.136 20.6026 94.8002 20.6026C95.7964 20.6026 96.637 20.3117 97.322 19.7299C98.0069 19.1273 98.3494 18.2857 98.3494 17.2052V15.8026L96.5436 15.8649Z" fill="#006EFF"/>
<path d="M119.567 18.639C119.567 20.3636 118.955 21.6935 117.73 22.6286C116.527 23.5429 114.721 24 112.313 24C111.13 24 110.113 23.9169 109.262 23.7506C108.411 23.6052 107.56 23.3558 106.709 23.0026V19.1688C107.622 19.5844 108.608 19.9273 109.667 20.1974C110.725 20.4675 111.659 20.6026 112.469 20.6026C113.382 20.6026 114.026 20.4675 114.399 20.1974C114.794 19.9273 114.991 19.574 114.991 19.1377C114.991 18.8468 114.908 18.587 114.742 18.3584C114.596 18.1299 114.264 17.8701 113.745 17.5792C113.226 17.2883 112.417 16.9143 111.317 16.4571C110.258 16 109.387 15.5532 108.702 15.1169C108.017 14.6597 107.508 14.1195 107.176 13.4961C106.844 12.8519 106.678 12.0519 106.678 11.0961C106.678 9.51688 107.29 8.33247 108.515 7.54286C109.74 6.75325 111.369 6.35844 113.403 6.35844C114.461 6.35844 115.468 6.46234 116.423 6.67013C117.378 6.87792 118.364 7.22078 119.381 7.6987L117.98 11.0338C117.149 10.6805 116.361 10.3896 115.613 10.161C114.866 9.91169 114.109 9.78701 113.341 9.78701C111.971 9.78701 111.286 10.161 111.286 10.9091C111.286 11.1792 111.369 11.4286 111.535 11.6571C111.722 11.8649 112.064 12.0935 112.562 12.3429C113.081 12.5922 113.839 12.9247 114.835 13.3403C115.811 13.7351 116.651 14.1506 117.357 14.587C118.063 15.0026 118.602 15.5325 118.976 16.1766C119.37 16.8 119.567 17.6208 119.567 18.639Z" fill="#006EFF"/>
<path d="M127.82 4.83117C127.82 5.66234 127.789 6.46234 127.727 7.23117C127.685 8 127.643 8.54026 127.602 8.85195H127.851C128.391 7.97922 129.086 7.34546 129.937 6.95065C130.788 6.55584 131.732 6.35844 132.77 6.35844C134.617 6.35844 136.091 6.85714 137.191 7.85455C138.312 8.83117 138.872 10.4104 138.872 12.5922V23.6883H134.233V13.7455C134.233 11.2935 133.32 10.0675 131.494 10.0675C130.103 10.0675 129.138 10.5558 128.598 11.5325C128.079 12.4883 127.82 13.8701 127.82 15.6779V23.6883H123.181V0H127.82V4.83117Z" fill="#006EFF"/>
</svg>
